<?xml version="1.0" encoding="UTF-8"?>
<svg xmlns="http://www.w3.org/2000/svg" xmlns:xlink="http://www.w3.org/1999/xlink" width="25px" height="25px" viewBox="0 0 25 25" version="1.1">
<g id="surface1">
<path style=" stroke:none;fill-rule:nonzero;fill:rgb(0%,0%,0%);fill-opacity:1;" d="M 12.5 0 C 5.609375 0 0 5.605469 0 12.5 C 0 19.390625 5.609375 25 12.5 25 C 19.390625 25 25 19.390625 25 12.5 C 25 5.605469 19.390625 0 12.5 0 Z M 12.5 22.5 C 6.988281 22.5 2.5 18.011719 2.5 12.5 C 2.5 6.988281 6.988281 2.5 12.5 2.5 C 18.015625 2.5 22.5 6.988281 22.5 12.5 C 22.5 18.011719 18.015625 22.5 12.5 22.5 Z M 12.5 22.5 "/>
<path style=" stroke:none;fill-rule:nonzero;fill:rgb(0%,0%,0%);fill-opacity:1;" d="M 12.5 5 C 8.363281 5 5 8.363281 5 12.5 C 5 16.636719 8.363281 20 12.5 20 C 16.636719 20 20 16.636719 20 12.5 C 20 8.363281 16.636719 5 12.5 5 Z M 12.5 17.5 C 9.742188 17.5 7.5 15.257812 7.5 12.5 C 7.5 9.742188 9.742188 7.5 12.5 7.5 C 15.257812 7.5 17.5 9.742188 17.5 12.5 C 17.5 15.257812 15.257812 17.5 12.5 17.5 Z M 12.5 17.5 "/>
<path style=" stroke:none;fill-rule:nonzero;fill:rgb(0%,0%,0%);fill-opacity:1;" d="M 12.5 10 C 11.121094 10 10 11.121094 10 12.5 C 10 13.878906 11.121094 15 12.5 15 C 13.882812 15 15 13.878906 15 12.5 C 15 11.121094 13.882812 10 12.5 10 Z M 12.5 10 "/>
</g>
</svg>
